<?xml version="1.0" encoding="UTF-8"?>
<svg id="Layer_2" xmlns="http://www.w3.org/2000/svg" version="1.1" viewBox="0 0 257.3718109 118.090004">
  <!-- Generator: Adobe Illustrator 29.8.2, SVG Export Plug-In . SVG Version: 2.1.1 Build 3)  -->
  <defs>
    <style>
      .st0 {
        fill: #0072bc;
      }

      .st1 {
        fill: none;
        stroke: #0072bc;
        stroke-miterlimit: 10;
        stroke-width: 5px;
      }
    </style>
  </defs>
  <g id="Layer_2-2">
    <g>
      <g>
        <path class="st0" d="M66.4499969,93.4000015h-29.5999985v-51.4000015h29.5999985v8.9300003h-18.7000008v11.2900009h17.3999977v8.9300003h-17.4000015v13.25h18.7000046v9Z"/>
        <path class="st0" d="M96.6900024,64.5400009h20.3899994v26.6500015c-3.3000031,1.0800018-6.4199982,1.8300018-9.3300018,2.2699966s-5.9000015.6500015-8.9499969.6500015c-7.7600021,0-13.6800003-2.2799988-17.7700043-6.8399963s-6.1299973-11.0999985-6.1299973-19.6299973,2.3700027-14.7700005,7.1200027-19.4099998,11.3300018-6.9599991,19.7399979-6.9599991c5.2699966,0,10.3600006,1.0499992,15.2600021,3.1599998l-3.6200027,8.7200012c-3.75-1.8800011-7.6500015-2.8100014-11.7099991-2.8100014-4.7099991,0-8.4799957,1.5800018-11.3199997,4.75s-4.25,7.420002-4.25,12.7599983,1.1399994,9.8399963,3.4300003,12.7799988,5.6100006,4.4100037,9.9700012,4.4100037c2.2699966,0,4.5800018-.2300034,6.9300003-.6999969v-10.7200012h-9.7399979v-9.0699997l-.0200043-.0100098Z"/>
        <path class="st0" d="M171.1499939,42v33.2599945c0,3.8000031-.8500061,7.1200027-2.5500031,9.9799957s-4.1499939,5.0500031-7.3699951,6.5699997-7.0099945,2.2900009-11.3899994,2.2900009c-6.6100006,0-11.7400055-1.6900024-15.3999939-5.0800018s-5.4799957-8.0200043-5.4799957-13.9000015v-33.1199989h10.8600006v31.4600029c0,3.9599991.8000031,6.8700027,2.3899994,8.7200012s4.2299957,2.7799988,7.9100037,2.7799988,6.1499939-.9300003,7.75-2.7900009,2.4100037-4.7900009,2.4100037-8.7699966v-31.3899994h10.8600006l.0099792-.0099945Z"/>
      </g>
      <path class="st0" d="M100.0400009,21.2399998c-5.9599991-1.9799995-10.6200027-6.6599998-12.6200027-12.6000004l-.5899963-1.77-.5899963,1.77c-1.9800034,5.96-6.6600037,10.6199989-12.5999985,12.6000004l-1.7699966.5900002,1.7699966.5900002c5.9599991,1.9799995,10.6200027,6.6599998,12.5999985,12.6200008l.5899963,1.7700005.5899963-1.7700005c1.9800034-5.9599991,6.6600037-10.6199989,12.6200027-12.6199989.5100021-.2199993,1.0299988-.4300003,1.5400009-.6499996-.5100021-.1800003-1.0299988-.3500004-1.5400009-.5300026Z"/>
      <g>
        <path class="st0" d="M42.1699944,110.8199997h5.2400017v6.5400009c-1.4199982.4899979-2.9900017.7300034-4.6899986.7300034-1.8699989,0-3.3199997-.5400009-4.3400002-1.6299973-1.0200005-1.0800018-1.5299988-2.6299973-1.5299988-4.6399994s.5600014-3.4800034,1.6800003-4.5699997,2.6800003-1.6399994,4.7000008-1.6399994c.7599983,0,1.4799995.0699997,2.1599998.2200012.6800003.1399994,1.2700005.3300018,1.7700005.5500031l-1.0400009,2.5699997c-.8699989-.4300003-1.8300018-.6500015-2.8800011-.6500015-.9599991,0-1.7000008.3099976-2.2200012.9300003s-.7799988,1.5100021-.7799988,2.6699982.2400017,2,.7099991,2.5899963c.4700012.5899963,1.1500015.8899994,2.0499992.8899994.4900017,0,.9300003-.0500031,1.3400002-.1399994v-1.9000015h-2.1699982v-2.5299988l-.0000038.0099945Z"/>
        <path class="st0" d="M60.1499939,117.9300003h-7.2099991v-12.1399994h7.2099991v2.6299973h-3.9300003v1.9100037h3.6399994v2.6299973h-3.6399994v2.2900009h3.9300003v2.6800003Z"/>
        <path class="st0" d="M76.8899918,117.9300003h-4.3000031l-4.4300003-8.5500031h-.0800018c.1100006,1.3399963.1600037,2.3700027.1600037,3.0800018v5.4700012h-2.9099998v-12.1399994h4.2800026l4.4199982,8.4300003h.0500031c-.0800018-1.2200012-.1200027-2.2099991-.1200027-2.9499969v-5.4899979h2.9199982v12.1399994l.0100021.0099945Z"/>
        <path class="st0" d="M89.7799911,117.9300003h-7.2099991v-12.1399994h7.2099991v2.6299973h-3.9300003v1.9100037h3.6399994v2.6299973h-3.6399994v2.2900009h3.9300003v2.6800003Z"/>
        <path class="st0" d="M98.2399902,113.5100021v4.4199982h-3.2799988v-12.1399994h3.9800034c3.3000031,0,4.9499969,1.1999969,4.9499969,3.5899963,0,1.4100037-.6900024,2.4899979-2.0599976,3.2600021l3.5400009,5.2900009h-3.7200012l-2.5699997-4.4199982h-.840004ZM98.2399902,111.0500031h.6100006c1.1500015,0,1.7200012-.5100021,1.7200012-1.5199966,0-.8399963-.5599976-1.25-1.6900024-1.25h-.6500015v2.7699966h.0100021Z"/>
        <path class="st0" d="M116.9699936,117.9300003l-.5999985-2.2699966h-3.9400024l-.6100006,2.2699966h-3.5999985l3.9599991-12.1900024h4.3799973l4.0100021,12.1900024h-3.5999985ZM115.6899948,112.9599991l-.5199966-1.9899979c-.1200027-.4400024-.2699966-1.0199966-.4400024-1.7200012-.1699982-.6999969-.2900009-1.2099991-.3399963-1.5100021-.0500031.2799988-.1500015.75-.2900009,1.3899994-.1500015.6500015-.4700012,1.9199982-.9800034,3.8300018h2.5800018-.0100021Z"/>
        <path class="st0" d="M124.9299927,117.9300003v-12.1399994h3.2799988v9.4899979h4.6699982v2.6500015h-7.9499969Z"/>
        <path class="st0" d="M153.6936048,117.9300003l-.6000061-2.2699966h-3.9400024l-.6100006,2.2699966h-3.6000061l3.9600067-12.1900024h4.3800049l4.0099945,12.1900024h-3.5999908ZM152.4236158,112.9599991l-.5200043-1.9899979c-.1199951-.4400024-.2700043-1.0199966-.4400024-1.7200012-.1699982-.6999969-.2899933-1.2099991-.3399963-1.5100021-.0500031.2799988-.1499939.75-.2899933,1.3899994-.1499939.6500015-.4700012,1.9199982-.9799957,3.8300018h2.5800018-.0100098Z"/>
        <path class="st0" d="M169.593614,114.2399979c0,.75-.1900024,1.4199982-.5700073,2s-.9299927,1.0400009-1.6499939,1.3600006-1.5599976.4899979-2.5299988.4899979c-.8099976,0-1.4900055-.0599976-2.0299988-.1699982-.5500031-.1100006-1.1199951-.3099976-1.7100067-.5899963v-2.9199982c.6199951.3199997,1.2799988.5699997,1.9499969.75.6799927.1800003,1.2899933.2699966,1.8600006.2699966.4900055,0,.8399963-.0800018,1.0700073-.25.2299957-.1699982.3399963-.3899994.3399963-.6500015,0-.1699982-.0399933-.3099976-.1399994-.4400024-.0899963-.1200027-.2400055-.25-.4400024-.3799973s-.7400055-.3899994-1.6199951-.7799988c-.7899933-.3600006-1.3800049-.7099991-1.7799988-1.0500031-.3999939-.3399963-.6900024-.7300034-.8800049-1.1600037-.1900024-.4400024-.2899933-.9599991-.2899933-1.5500031,0-1.1200027.4100037-1.9899979,1.2200012-2.6100006.8099976-.6299973,1.9299927-.9400024,3.3500061-.9400024,1.2599945,0,2.5399933.2900009,3.8399963.8700027l-1,2.5299988c-1.1300049-.5199966-2.1100006-.7799988-2.9400024-.7799988-.4299927,0-.7400055.0800018-.9299927.2200012-.1900024.1500015-.2899933.3300018-.2899933.5599976,0,.2399979.1199951.4499969.3699951.6399994s.9100037.5299988,2,1.0299988c1.0500031.4700012,1.7700043.9800034,2.1799927,1.5100021.4100037.5400009.6100006,1.2200012.6100006,2.0400009l.0099945.0000076Z"/>
        <path class="st0" d="M182.4636091,114.2399979c0,.75-.1900024,1.4199982-.5700073,2s-.9299927,1.0400009-1.6499939,1.3600006-1.5599976.4899979-2.5299988.4899979c-.8099976,0-1.4900055-.0599976-2.0299988-.1699982-.5500031-.1100006-1.1199951-.3099976-1.7100067-.5899963v-2.9199982c.6300049.3199997,1.2799988.5699997,1.9499969.75s1.2899933.2699966,1.8600006.2699966c.4900055,0,.8399963-.0800018,1.0700073-.25.2299957-.1699982.3399963-.3899994.3399963-.6500015,0-.1699982-.0500031-.3099976-.1399994-.4400024-.0899963-.1200027-.2400055-.25-.4400024-.3799973s-.7400055-.3899994-1.6100006-.7799988c-.7899933-.3600006-1.3800049-.7099991-1.7799988-1.0500031-.3999939-.3399963-.6900024-.7300034-.8800049-1.1600037-.1900024-.4400024-.2899933-.9599991-.2899933-1.5500031,0-1.1200027.4100037-1.9899979,1.2200012-2.6100006.8099976-.6299973,1.9299927-.9400024,3.3500061-.9400024,1.2599945,0,2.5399933.2900009,3.8399963.8700027l-1,2.5299988c-1.1300049-.5199966-2.1100006-.7799988-2.9400024-.7799988-.4299927,0-.7400055.0800018-.9299927.2200012-.1900024.1500015-.2899933.3300018-.2899933.5599976,0,.2399979.1199951.4499969.3699951.6399994s.9199982.5299988,2,1.0299988c1.0500031.4700012,1.7700043.9800034,2.1799927,1.5100021.4100037.5400009.6100006,1.2200012.6100006,2.0400085Z"/>
        <path class="st0" d="M194.6036085,117.9300003h-7.2100067v-12.1399994h7.2100067v2.6299973h-3.9299927v1.9100037h3.6399994v2.6299973h-3.6399994v2.2900009h3.9299927v2.6800003Z"/>
        <path class="st0" d="M205.0736097,117.9300003l-2.4799957-8.7399979h-.0700073c.1199951,1.4899979.1699982,2.6500015.1699982,3.4700012v5.2699966h-2.9100037v-12.1399994h4.3699951l2.5299988,8.6200027h.0700073l2.4799957-8.6200027h4.3800049v12.1399994h-3.0099945v-5.3199997c0-.2799988,0-.5800018.0099945-.9199982,0-.3399963.0500031-1.1699982.1100006-2.4800034h-.0800018l-2.4499969,8.7200012h-3.1199951Z"/>
        <path class="st0" d="M219.2836164,105.7900009h4.2299957c1.6499939,0,2.8699951.25,3.6699982.7300034.8000031.4899979,1.1999969,1.25,1.1999969,2.2900009,0,.6800003-.1699982,1.2600021-.5200043,1.7399979s-.8099976.7900009-1.3800049.9300003v.0800018c.75.1999969,1.3000031.5299988,1.6399994,1,.3399963.4599991.5099945,1.0699997.5099945,1.8099976,0,1.0999985-.4100037,1.9700012-1.2400055,2.5999985s-1.9499969.9499969-3.3800049.9499969h-4.7200012v-12.1399994l-.009964.0100021ZM222.5636152,110.4499969h.9900055c.4700012,0,.8300018-.0999985,1.0899963-.2900009s.3899994-.4800034.3899994-.8600006c0-.6800003-.5099945-1.0199966-1.5399933-1.0199966h-.9199982v2.1699982h-.0100098ZM222.5636152,112.8499985v2.5500031h1.1499939c1.0200043,0,1.5399933-.4300003,1.5399933-1.2900009,0-.4000015-.1399994-.7099991-.4100037-.9300003s-.6699982-.3199997-1.1900024-.3199997h-1.0899963l.0000153-.0100021Z"/>
        <path class="st0" d="M233.8036054,117.9300003v-12.1399994h3.2799988v9.4899979h4.6699982v2.6500015h-7.9499969Z"/>
        <path class="st0" d="M251.0836042,110.2900009l2.0899963-4.5h3.5500031l-3.9900055,7.4000015v4.7399979h-3.3000031v-4.6399994l-3.9900055-7.5h3.5700073l2.0800018,4.5h-.0099945Z"/>
      </g>
      <path class="st1" d="M28.5900002,89.2600021c-15.4200001-7.3000031-26.0900002-23.0100021-26.0900002-41.2000008C2.5,22.8999996,22.8999996,2.5,48.0600014,2.5c16.3100014,0,30.6199989,8.5699997,38.6699944,21.4500008"/>
      <path class="st0" d="M7.8600001,26.6299992c4.23,3.3400002,8.4399991,7.3700008,14.0399995,4.5200005,2.2000008-1.1200008,3.0499992-2.6399994,5.8899994-2.5,1.460001.0699997,3.1299992.8700008,4.539999,1.2299995,3.4700012.8799992,7.4500008,2.1499996,11.0600014,1.4099998,5.2299995-1.0699997,8.3199997-5.2600002,11.2200012-9.3500004s5.9799995-10.8800001,10.8199997-13.21c3.4800034-1.6700001.4400024-6.8499999-3.0299988-5.1799998-8.1100006,3.9100003-10.2099991,14.6800008-16.8700027,20.1299996-5.7000008,4.6599998-12.8699989-1.4200001-19.1000004-1.1399994-2.6200008.1200008-3.7299995,1.4899998-6,2.4200001s-3.1100006,1.0699997-5.46-.3600006c-.9899998-.6000004-1.9399996-1.5-2.8499994-2.2199993-3-2.3700008-7.27,1.8500004-4.2399998,4.2399998h0l-.019999.0100002Z"/>
      <path class="st0" d="M2.8399999,46.2700005c2.4399998,1.0800018,4.6899998.9399986,7.2,1.6399994,4.0299997,1.1300011,5.4399996,3.9300003,5.8299999,7.8499985.6799994,6.7200012-2.7699995,11.0300026-5.8100004,16.7199974-1.8199997,3.4000015,3.3599997,6.4400024,5.1800003,3.0299988,1.9300003-3.5999985,4.2700005-7.0599976,5.8199997-10.8499985s1.039999-7.8499985.4899998-11.9099998c-.4400005-3.2299995-1.6000004-5.2200012-4.0300007-7.4300003-1.4099998-1.2799988-2.9499998-2.4300003-4.7800007-3.0499992-2.1800003-.7299995-4.79-.2599983-6.8800001-1.1800003-3.5-1.5499992-6.5500002,3.6199989-3.03,5.1800003h0l.0100021.0000038Z"/>
    </g>
  </g>
  <g>
    <path class="st0" d="M216.1100159,93.4063053h-35.9300079v-7.5599976l12.8999939-13.0400009c3.8200073-3.9100037,6.3200073-6.6299973,7.4900055-8.1399994,1.1699982-1.5099983,2.0200043-2.9099998,2.5299988-4.2000008s.7700043-2.6199989.7700043-4.0099983c0-2.0600014-.5700073-3.5999985-1.7100067-4.6100006-1.1399994-1.0099983-2.6499939-1.5099983-4.5500031-1.5099983-1.9900055,0-3.9299927.4599991-5.8000031,1.3699989-1.8800049.9099998-3.8300018,2.2099991-5.8699951,3.9000015l-5.9100037-7c2.5299988-2.1599998,4.6300049-3.6800003,6.2899933-4.5699997,1.6600037-.8899994,3.4799957-1.5800018,5.4499969-2.0600014s4.1699982-.7200012,6.6100006-.7200012c3.2100067,0,6.0500031.5900002,8.5099945,1.7599983s4.3699951,2.8100014,5.7299957,4.9199982c1.3600006,2.1100006,2.0399933,4.5200005,2.0399933,7.2399979,0,2.3699989-.4199982,4.5900002-1.25,6.6599998s-2.1199951,4.2000008-3.8699951,6.3800011-4.8200073,5.2900009-9.2299957,9.3199997l-6.6100006,6.2200012v.4899979h22.3899994v9.1399994l.0200348.0200043Z"/>
    <path class="st0" d="M221.0905609,71.5748463c0-2.953125.2167969-5.8769531.6503906-8.7714844s1.1894531-5.6254883,2.2675781-8.1918945,2.5898438-4.8393555,4.5351562-6.8203125c1.9453125-1.9804688,4.4179688-3.5385742,7.4179688-4.6757812,3-1.1367188,6.6328125-1.7050781,10.8984375-1.7050781,1.0078125,0,2.1855469.0410156,3.5332031.1230469,1.3476562.0825195,2.4667969.2167969,3.3574219.4042969v8.6835938c-.9375-.2109375-1.9394531-.3808594-3.0058594-.5097656-1.0664062-.128418-2.1269531-.1933594-3.1816406-.1933594-4.265625,0-7.5644531.6801758-9.8964844,2.0390625-2.3320312,1.359375-3.9726562,3.2402344-4.921875,5.6425781-.9492188,2.402832-1.5058594,5.1977539-1.6699219,8.3852539h.4570312c.65625-1.1484375,1.4824219-2.1679688,2.4785156-3.0585938s2.2089844-1.5996094,3.6386719-2.1269531,3.1054688-.7910156,5.0273438-.7910156c3,0,5.6015625.6386719,7.8046875,1.9160156s3.9023438,3.1230469,5.0976562,5.5371094,1.7929688,5.3554688,1.7929688,8.8242188c0,3.703125-.7148438,6.890625-2.1445312,9.5625s-3.4511719,4.7167969-6.0644531,6.1347656-5.7128906,2.1269531-9.2988281,2.1269531c-2.625,0-5.0742188-.4521484-7.3476562-1.3535156-2.2734375-.9023438-4.265625-2.2792969-5.9765625-4.1308594s-3.046875-4.1894531-4.0078125-7.0136719-1.4414062-6.1699219-1.4414062-10.0371094ZM239.6530609,85.4264088c2.1328125,0,3.8671875-.7265625,5.203125-2.1796875s2.0039062-3.7265625,2.0039062-6.8203125c0-2.5078125-.5800781-4.4824219-1.7402344-5.9238281s-2.9121094-2.1621094-5.2558594-2.1621094c-1.59375,0-2.9941406.3574219-4.2011719,1.0722656s-2.1386719,1.6171875-2.7949219,2.7070312-.984375,2.2089844-.984375,3.3574219c0,1.1953125.1640625,2.3789062.4921875,3.5507812s.8203125,2.2382812,1.4765625,3.1992188,1.4707031,1.734375,2.4433594,2.3203125,2.0917969.8789062,3.3574219.8789062Z"/>
  </g>
</svg>